<svg xmlns="http://www.w3.org/2000/svg" width="32" height="32" viewBox="0 0 32 32">
    <style>
        @media (prefers-color-scheme: dark) {
        path { fill: #fff; }
        }
        @media (prefers-color-scheme: light) {
        path { fill: #374151; }
        }
    </style>
    <path
        d="M16 0C7.163 0 0 7.163 0 16s7.163 16 16 16 16-7.163 16-16S24.837 0 16 0zm-4 20l4-8 4 8H12zm12-2c0 1.105-.895 2-2 2s-2-.895-2-2 .895-2 2-2 2 .895 2 2zm-12-2c0-1.105.895-2 2-2s2 .895 2 2-.895 2-2 2-2-.895-2-2z" />
</svg>